<svg height="512pt" viewBox="0 0 512 512" width="512pt" xmlns="http://www.w3.org/2000/svg">
    <path d="m376 10h-240c-17.671875 0-32 14.328125-32 32v428c0 17.671875 14.328125 32 32 32h240c17.671875 0 32-14.328125 32-32v-428c0-17.671875-14.328125-32-32-32zm0 0" fill="#0934c3" />
    <path d="m104 74h304v364h-304zm0 0" fill="#fff" />
    <path d="m481.667969 114h-205.207031c-11.230469 0-20.332032 9.105469-20.332032 20.332031v79.332031c0 11.230469 9.101563 20.335938 20.332032 20.335938h163.207031l30.332031 30.332031v-30.332031h11.667969c11.230469 0 20.332031-9.105469 20.332031-20.332031v-79.332031c0-11.230469-9.105469-20.335938-20.332031-20.335938zm0 0" fill="#eb6424" />
    <path d="m30.332031 274h205.207031c11.230469 0 20.332032 9.105469 20.332032 20.332031v79.332031c0 11.230469-9.101563 20.335938-20.332032 20.335938h-163.207031l-30.332031 30.332031v-30.332031h-11.667969c-11.226562 0-20.332031-9.105469-20.332031-20.332031v-79.332031c0-11.230469 9.105469-20.335938 20.332031-20.335938zm0 0" fill="#08d958" />
    <path d="m255.730469 460c-2.628907 0-5.210938 1.070312-7.070313 2.929688-1.859375 1.859374-2.929687 4.441406-2.929687 7.070312s1.070312 5.210938 2.929687 7.070312c1.859375 1.859376 4.441406 2.929688 7.070313 2.929688 2.628906 0 5.210937-1.070312 7.070312-2.929688 1.859375-1.859374 2.929688-4.441406 2.929688-7.070312s-1.070313-5.210938-2.929688-7.070312c-1.859375-1.859376-4.441406-2.929688-7.070312-2.929688zm0 0" />
    <path d="m256 84c2.628906 0 5.210938-1.070312 7.070312-2.929688 1.859376-1.859374 2.929688-4.441406 2.929688-7.070312s-1.070312-5.210938-2.929688-7.070312c-1.859374-1.859376-4.441406-2.929688-7.070312-2.929688s-5.210938 1.070312-7.070312 2.929688c-1.859376 1.859374-2.929688 4.441406-2.929688 7.070312s1.070312 5.210938 2.929688 7.070312c1.859374 1.859376 4.441406 2.929688 7.070312 2.929688zm0 0" />
    <path d="m481.667969 104h-63.667969v-62c0-23.160156-18.839844-42-42-42h-240c-23.160156 0-42 18.839844-42 42v222h-63.667969c-16.726562 0-30.332031 13.605469-30.332031 30.332031v79.335938c0 16.726562 13.605469 30.332031 30.332031 30.332031h1.667969v20.332031c0 4.046875 2.4375 7.691407 6.171875 9.238281 1.238281.515626 2.539063.761719 3.824219.761719 2.605468 0 5.160156-1.015625 7.074218-2.929687l27.40625-27.402344h17.523438v66c0 23.160156 18.839844 42 42 42h240c23.160156 0 42-18.839844 42-42v-226h17.523438l27.40625 27.402344c1.914062 1.914062 4.46875 2.929687 7.074218 2.929687 1.285156 0 2.585938-.246093 3.824219-.761719 3.734375-1.546874 6.171875-5.191406 6.171875-9.238281v-20.332031h1.667969c16.726562 0 30.332031-13.605469 30.332031-30.332031v-79.335938c0-16.726562-13.605469-30.332031-30.332031-30.332031zm-409.335938 280c-2.652343 0-5.195312 1.054688-7.070312 2.929688l-13.261719 13.261718v-6.191406c0-5.523438-4.476562-10-10-10h-11.667969c-5.695312 0-10.332031-4.636719-10.332031-10.332031v-79.335938c0-5.695312 4.636719-10.332031 10.332031-10.332031h205.207031c5.699219 0 10.332032 4.636719 10.332032 10.332031v79.335938c0 5.695312-4.632813 10.332031-10.332032 10.332031zm303.667969 108h-240c-12.132812 0-22-9.867188-22-22v-22h284v22c0 12.132812-9.867188 22-22 22zm22-64h-284v-24h121.539062c16.726563 0 30.332032-13.605469 30.332032-30.332031v-79.335938c0-16.726562-13.605469-30.332031-30.332032-30.332031h-121.539062v-180h97c5.523438 0 10-4.476562 10-10s-4.476562-10-10-10h-97v-22c0-12.132812 9.867188-22 22-22h240c12.132812 0 22 9.867188 22 22v22h-97c-5.523438 0-10 4.476562-10 10s4.476562 10 10 10h97v20h-121.539062c-16.726563 0-30.332032 13.605469-30.332032 30.332031v79.335938c0 16.726562 13.605469 30.332031 30.332032 30.332031h121.539062zm94-214.332031c0 5.695312-4.636719 10.332031-10.332031 10.332031h-11.667969c-5.523438 0-10 4.476562-10 10v6.191406l-13.261719-13.261718c-1.875-1.875-4.417969-2.929688-7.070312-2.929688h-163.207031c-5.699219 0-10.332032-4.636719-10.332032-10.335938v-79.332031c0-5.695312 4.632813-10.332031 10.332032-10.332031h205.207031c5.695312 0 10.332031 4.636719 10.332031 10.332031zm0 0" />
    <path d="m458.8125 144h-159.5c-5.523438 0-10 4.476562-10 10s4.476562 10 10 10h159.5c5.523438 0 10-4.476562 10-10s-4.476562-10-10-10zm0 0" />
    <path d="m458.8125 184h-56.8125c-5.523438 0-10 4.476562-10 10s4.476562 10 10 10h56.8125c5.523438 0 10-4.476562 10-10s-4.476562-10-10-10zm0 0" />
    <path d="m352.835938 184h-53.523438c-5.523438 0-10 4.476562-10 10s4.476562 10 10 10h53.523438c5.523437 0 10-4.476562 10-10s-4.476563-10-10-10zm0 0" />
    <path d="m81.871094 324c-2.632813 0-5.210938 1.070312-7.070313 2.929688-1.859375 1.859374-2.929687 4.429687-2.929687 7.070312 0 2.628906 1.070312 5.210938 2.929687 7.070312 1.859375 1.859376 4.4375 2.929688 7.070313 2.929688 2.640625 0 5.207031-1.070312 7.070312-2.929688 1.859375-1.859374 2.929688-4.441406 2.929688-7.070312 0-2.640625-1.070313-5.210938-2.929688-7.070312-1.863281-1.859376-4.429687-2.929688-7.070312-2.929688zm0 0" />
    <path d="m132.941406 324c-2.640625 0-5.210937 1.070312-7.070312 2.929688-1.871094 1.859374-2.929688 4.441406-2.929688 7.070312s1.058594 5.210938 2.929688 7.070312c1.859375 1.859376 4.429687 2.929688 7.070312 2.929688 2.628906 0 5.207032-1.070312 7.070313-2.929688 1.859375-1.859374 2.929687-4.441406 2.929687-7.070312s-1.070312-5.210938-2.929687-7.070312c-1.871094-1.859376-4.441407-2.929688-7.070313-2.929688zm0 0" />
    <path d="m184 324c-2.628906 0-5.210938 1.070312-7.070312 2.929688-1.859376 1.859374-2.929688 4.441406-2.929688 7.070312s1.070312 5.210938 2.929688 7.070312c1.859374 1.859376 4.441406 2.929688 7.070312 2.929688s5.210938-1.070312 7.070312-2.929688c1.859376-1.859374 2.929688-4.441406 2.929688-7.070312s-1.070312-5.210938-2.929688-7.070312c-1.859374-1.859376-4.441406-2.929688-7.070312-2.929688zm0 0" />
</svg>