<svg width="108" height="40" viewBox="0 0 108 40" fill="none" xmlns="http://www.w3.org/2000/svg">
<path fill-rule="evenodd" clip-rule="evenodd" d="M43.0502 13.334C43.4327 13.334 43.8101 13.3633 44.1798 13.4195C44.5494 13.4769 44.8882 13.5599 45.1947 13.6671C45.5 13.7743 45.7563 13.8969 45.9598 14.036C46.2277 14.2134 46.3616 14.4036 46.3616 14.6053C46.3616 14.7444 46.314 14.9282 46.2187 15.1554C46.1221 15.3826 46.0049 15.5855 45.8645 15.7629C45.7241 15.9404 45.5901 16.0284 45.4626 16.0284C45.4197 16.0284 45.3705 16.0171 45.3138 15.9944L45.223 15.9518C45.1595 15.9187 45.0799 15.8821 44.9847 15.8428L44.8302 15.7821C44.6525 15.7055 44.4322 15.6327 44.1708 15.5638C43.908 15.4949 43.586 15.4592 43.2035 15.4592C42.7179 15.4592 42.3264 15.5255 42.0263 15.6583C41.7261 15.791 41.5123 15.9659 41.3848 16.1803C41.2573 16.3948 41.1942 16.636 41.1942 16.9015C41.1942 17.2806 41.296 17.5907 41.4995 17.8307C41.7043 18.0706 41.9747 18.2698 42.3135 18.428C42.6509 18.5863 43.0244 18.7407 43.4327 18.8926C43.8282 19.0573 44.2339 19.2373 44.6486 19.4338C45.0633 19.6291 45.4459 19.8729 45.7975 20.1639C46.1478 20.4549 46.4286 20.8212 46.6398 21.2642C46.8498 21.7071 46.9554 22.2508 46.9554 22.8954C46.9554 23.591 46.8408 24.1922 46.6115 24.6976C46.381 25.2043 46.0615 25.6179 45.6532 25.9395C45.2449 26.2625 44.7851 26.4999 44.2764 26.6518C43.765 26.8037 43.2292 26.879 42.6677 26.879C41.7493 26.879 40.9611 26.7845 40.3042 26.5943C39.646 26.4054 39.1515 26.1897 38.8191 25.9498C38.501 25.7353 38.3413 25.5196 38.3413 25.3052C38.3413 25.1405 38.4018 24.944 38.5229 24.7168C38.644 24.4896 38.7882 24.2892 38.9544 24.1194C39.1193 23.9484 39.2545 23.8629 39.3562 23.8629C39.4065 23.8629 39.4709 23.882 39.5469 23.9203L39.7258 24.013C39.7598 24.0312 39.7959 24.0509 39.8341 24.0722L40.179 24.2329L40.5996 24.4116C40.6761 24.4428 40.7558 24.4748 40.8387 24.5074C41.2535 24.6721 41.7493 24.7551 42.3225 24.7551C42.6806 24.7551 43.0154 24.7014 43.3284 24.593C43.6401 24.4857 43.8926 24.3083 44.0845 24.062C44.2764 23.8156 44.3704 23.5029 44.3704 23.1226C44.3704 22.6937 44.2274 22.3516 43.9402 22.0989C43.6543 21.8462 43.2859 21.6241 42.8403 21.4352L41.921 21.0388L41.4428 20.8276C41.0847 20.6757 40.737 20.5021 40.3995 20.3056C40.0608 20.1103 39.7581 19.8703 39.4902 19.5844C39.2223 19.3011 39.0085 18.9526 38.8488 18.5416C38.6891 18.1306 38.6092 17.6341 38.6092 17.0521C38.6092 16.2186 38.8166 15.5255 39.2313 14.9754C39.646 14.4253 40.1922 14.0143 40.8683 13.7424C41.5445 13.4706 42.2723 13.334 43.0502 13.334ZM54.1915 13.334C54.5998 13.334 55.0209 13.3633 55.455 13.4195C55.889 13.4769 56.2909 13.5599 56.6618 13.6671C57.0315 13.7743 57.338 13.8969 57.5802 14.036C57.8996 14.2262 58.0593 14.4164 58.0593 14.6053C58.0593 14.7572 58.0014 14.9563 57.8867 15.2026C57.7708 15.4502 57.6343 15.6685 57.4746 15.8574C57.3148 16.0476 57.1654 16.142 57.0251 16.142C56.9735 16.142 56.8717 16.1053 56.7183 16.0324L56.5936 15.971C56.3708 15.8574 56.0616 15.7438 55.6649 15.6302C55.2708 15.5166 54.7659 15.4592 54.1528 15.4592C52.8906 15.4592 51.9555 15.8382 51.3489 16.5977C50.7422 17.3559 50.4395 18.5263 50.4395 20.1077C50.4395 21.6624 50.7422 22.8264 51.3489 23.5974C51.9555 24.3696 52.8777 24.7551 54.1155 24.7551C54.7402 24.7551 55.2708 24.6887 55.7036 24.5547C56.0508 24.4495 56.347 24.341 56.592 24.2306L57.0075 24.0314C57.1464 23.9694 57.2414 23.9382 57.293 23.9382C57.4591 23.9382 57.6188 24.0365 57.7708 24.233C57.9241 24.4296 58.0451 24.6415 58.1353 24.8687C58.2242 25.0959 58.2693 25.2605 58.2693 25.3613C58.2693 25.5132 58.2126 25.6562 58.0967 25.7889C57.982 25.9217 57.8223 26.0442 57.6188 26.1578C57.338 26.3097 56.9993 26.4399 56.6039 26.5471C56.2085 26.6543 55.7937 26.7373 55.3597 26.7934C54.9256 26.8509 54.5109 26.879 54.1155 26.879C51.9838 26.879 50.4073 26.3288 49.3873 25.2286C48.3659 24.1284 47.8558 22.4142 47.8558 20.0873C47.8558 15.5855 49.9669 13.334 54.1915 13.334ZM78.8466 13.335C80.7992 13.335 82.2958 13.9107 83.3353 15.0607C84.376 16.212 84.895 17.8942 84.895 20.1075C84.895 22.2952 84.376 23.9711 83.3353 25.1339C82.2958 26.2979 80.7992 26.8787 78.8466 26.8787C76.894 26.8787 75.3948 26.2979 74.3489 25.1339C73.3018 23.9711 72.7776 22.2952 72.7776 20.1075C72.7776 17.8942 73.3018 16.212 74.3489 15.0607C75.3948 13.9107 76.894 13.335 78.8466 13.335ZM92.3615 13.335C94.3141 13.335 95.8108 13.9107 96.8502 15.0607C97.8909 16.212 98.4099 17.8942 98.4099 20.1075C98.4099 22.2952 97.8909 23.9711 96.8502 25.1339C95.8108 26.2979 94.3141 26.8787 92.3615 26.8787C90.4089 26.8787 88.9097 26.2979 87.8638 25.1339C86.8167 23.9711 86.2925 22.2952 86.2925 20.1075C86.2925 17.8942 86.8167 16.212 87.8638 15.0607C88.9097 13.9107 90.4089 13.335 92.3615 13.335ZM61.4076 13.4298C62.0838 13.4298 62.4225 13.6136 62.4225 13.98V18.8928H68.203V13.98C68.203 13.6136 68.5418 13.4298 69.218 13.4298H69.7164C70.3926 13.4298 70.7301 13.6136 70.7301 13.98V26.2345C70.7301 26.6008 70.3926 26.7846 69.7164 26.7846H69.218C68.5418 26.7846 68.203 26.6008 68.203 26.2345V21.0358H62.4225V26.2345C62.4225 26.6008 62.0838 26.7846 61.4076 26.7846H60.9104C60.2329 26.7846 59.8955 26.6008 59.8955 26.2345V13.98C59.8955 13.6136 60.2329 13.4298 60.9104 13.4298H61.4076ZM101.951 13.43C102.628 13.43 102.966 13.6125 102.966 13.9801V24.6213H107.503C107.835 24.6213 108 24.8932 108 25.4369V25.9309C108 26.4746 107.835 26.7465 107.503 26.7465H101.167C100.694 26.7465 100.459 26.5129 100.459 26.0445V13.9801C100.459 13.6125 100.796 13.43 101.472 13.43H101.951ZM16.1158 13.3502C16.1719 13.3502 16.2199 13.3832 16.2405 13.431L16.2511 13.4829V26.5812C16.2511 26.6367 16.217 26.6843 16.1685 26.7047L16.1158 26.7152H13.688C13.6319 26.7152 13.5839 26.6815 13.5634 26.6333L13.5527 26.5812V13.4829C13.5527 13.4274 13.5868 13.3805 13.6353 13.3605L13.688 13.3502H16.1158ZM27.5797 13.3497C27.6358 13.3497 27.6838 13.3834 27.7044 13.4315L27.715 13.4837V15.8897C27.715 15.9443 27.6809 15.9916 27.6324 16.0119L27.5797 16.0224H24.0056V26.5947C24.0056 26.6445 23.9715 26.6871 23.923 26.7053L23.8703 26.7147H21.4437C21.3877 26.7147 21.3397 26.6845 21.3191 26.6415L21.3085 26.5947V16.0224H17.7343C17.6783 16.0224 17.6302 15.9887 17.6097 15.9411L17.5991 15.8897V13.4837C17.5991 13.4282 17.6331 13.3806 17.6817 13.3602L17.7343 13.3497H27.5797ZM78.8466 15.4589C77.7106 15.4589 76.8464 15.8546 76.2526 16.6447C75.6588 17.436 75.3626 18.5835 75.3626 20.0883C75.3626 21.606 75.6588 22.7624 76.2526 23.5588C76.8464 24.3566 77.7106 24.7548 78.8466 24.7548C79.9826 24.7548 80.8443 24.3566 81.4303 23.5588C82.0176 22.7624 82.3113 21.606 82.3113 20.0883C82.3113 18.5835 82.0176 17.436 81.4303 16.6447C80.8443 15.8546 79.9826 15.4589 78.8466 15.4589ZM92.3615 15.4589C91.2255 15.4589 90.3613 15.8546 89.7675 16.6447C89.1737 17.436 88.8775 18.5835 88.8775 20.0883C88.8775 21.606 89.1737 22.7624 89.7675 23.5588C90.3613 24.3566 91.2255 24.7548 92.3615 24.7548C93.4975 24.7548 94.3592 24.3566 94.9452 23.5588C95.5325 22.7624 95.8262 21.606 95.8262 20.0883C95.8262 18.5835 95.5325 17.436 94.9452 16.6447C94.3592 15.8546 93.4975 15.4589 92.3615 15.4589Z" fill="#FCFAF7"/>
<path fill-rule="evenodd" clip-rule="evenodd" d="M36.5642 11.8519C36.1011 11.8519 35.6496 11.6135 35.4007 11.1852C32.6939 6.53739 27.8936 3.3505 22.5583 2.6583C21.8232 2.5627 21.305 1.89345 21.3999 1.16174C21.4961 0.431302 22.1709 -0.0811506 22.9059 0.0106319C29.0635 0.809905 34.6041 4.48758 37.7252 9.84793C38.0972 10.4866 37.8778 11.3024 37.2351 11.6721C37.0235 11.7932 36.7926 11.8519 36.5642 11.8519Z" fill="#137BBC"/>
<path fill-rule="evenodd" clip-rule="evenodd" d="M33.3765 17.9894C32.7799 17.9894 32.2324 17.5915 32.071 16.9888C31.7947 15.9586 31.388 14.9748 30.8599 14.0656C28.976 10.818 25.6331 8.59148 21.9183 8.10729C20.6994 7.9489 19.9608 7.9489 18.7419 8.10729C15.0271 8.59148 11.6841 10.818 9.79896 14.0656C9.27215 14.9748 8.86413 15.9586 8.58781 16.9888C8.39542 17.7087 7.65426 18.1362 6.93248 17.943C6.21198 17.7512 5.7833 17.012 5.97569 16.2921C6.31399 15.0327 6.81239 13.8287 7.45929 12.7148C9.76152 8.7473 13.8482 6.02503 18.392 5.43395C19.8472 5.24337 20.8117 5.24337 22.2682 5.43395C26.8107 6.02503 30.8973 8.7473 33.1996 12.7148C33.8465 13.8287 34.3462 15.0327 34.6832 16.2921C34.8768 17.012 34.4482 17.7512 33.7264 17.943C33.6089 17.9739 33.4927 17.9894 33.3765 17.9894Z" fill="#008768"/>
<path fill-rule="evenodd" clip-rule="evenodd" d="M17.7156 40C17.6578 40 17.5987 39.9961 17.5397 39.9884C11.3755 39.1848 5.83029 35.4823 2.70453 30.0826C1.81843 28.551 1.13909 26.9154 0.685765 25.2183C0.229873 23.5159 0 21.761 0 19.9996C0 18.2395 0.229873 16.4832 0.685765 14.7809C1.13909 13.085 1.81843 11.4481 2.70453 9.91784C5.829 4.51815 11.3755 0.81437 17.5397 0.0107074C18.2819 -0.0817267 18.951 0.434364 19.0473 1.16998C19.1436 1.90689 18.6248 2.58089 17.8877 2.67717C12.548 3.37428 7.74118 6.5838 5.0328 11.2646C4.26484 12.5907 3.67668 14.0081 3.28371 15.4754C2.88946 16.9518 2.68912 18.4744 2.68912 19.9996C2.68912 21.526 2.88946 23.0486 3.28371 24.5237C3.67668 25.9924 4.26484 27.4097 5.0328 28.7359C7.74118 33.4166 12.548 36.6262 17.8877 37.322C18.6248 37.4183 19.1436 38.0935 19.0473 38.8292C18.9587 39.507 18.3808 40 17.7156 40Z" fill="#C54B32"/>
<path fill-rule="evenodd" clip-rule="evenodd" d="M20.3297 34.7082C19.7345 34.7082 19.1186 34.6644 18.3916 34.5691C13.8493 33.9778 9.76142 31.2547 7.45925 27.286C6.81366 26.1718 6.31398 24.9674 5.97569 23.7076C5.7833 22.9875 6.21197 22.2481 6.93245 22.0562C7.65422 21.863 8.39535 22.2906 8.58903 23.0107C8.86534 24.0412 9.27335 25.0253 9.80015 25.9347C11.684 29.1821 15.0268 31.4106 18.7415 31.8936C19.9565 32.0533 20.7028 32.0521 21.9178 31.8949C25.6325 31.4106 28.9754 29.1821 30.8592 25.9347C31.386 25.0253 31.794 24.0412 32.0703 23.0107C32.264 22.2906 33.0052 21.863 33.7269 22.0562C34.4474 22.2481 34.8761 22.9875 34.6837 23.7076C34.3454 24.9674 33.8457 26.1718 33.2001 27.286C30.898 31.2547 26.8101 33.9778 22.2677 34.5691C21.5421 34.6644 20.9262 34.7082 20.3297 34.7082Z" fill="#ECB13A"/>
<path fill-rule="evenodd" clip-rule="evenodd" d="M38.8562 38.0826C38.8562 38.2092 38.9719 38.2724 39.206 38.2724H39.2408C39.4749 38.2724 39.5919 38.2092 39.5919 38.0826V34.3723H40.3534C40.4691 34.3723 40.5283 34.2863 40.5283 34.1142V34.0105C40.5283 33.8385 40.4691 33.7524 40.3534 33.7524H39.5919V33.0023C39.5919 32.8138 39.6125 32.6746 39.6575 32.5848C39.7 32.4963 39.7591 32.4381 39.8324 32.409C39.9058 32.3799 39.9816 32.366 40.064 32.366C40.1926 32.366 40.2775 32.3736 40.3186 32.3875C40.3585 32.4014 40.3997 32.409 40.4408 32.409C40.4807 32.409 40.5142 32.3799 40.5412 32.3229C40.5669 32.266 40.5875 32.204 40.6016 32.1383C40.6171 32.0712 40.6248 32.0269 40.6248 32.0042C40.6248 31.9245 40.5875 31.8663 40.5142 31.8321C40.4421 31.798 40.356 31.7739 40.2569 31.7638C40.1579 31.7512 40.0665 31.7461 39.9855 31.7461C39.8736 31.7461 39.754 31.76 39.6266 31.7891C39.498 31.8169 39.3745 31.8739 39.2588 31.9574C39.1417 32.0396 39.0452 32.1585 38.9694 32.3141C38.8935 32.4697 38.8562 32.6759 38.8562 32.934V33.7524H38.505C38.3892 33.7524 38.3301 33.8385 38.3301 34.0105V34.1142C38.3301 34.2863 38.3892 34.3723 38.505 34.3723H38.8562V38.0826ZM41.7618 38.0826C41.7618 38.2092 41.8789 38.2724 42.113 38.2724H42.1477C42.3818 38.2724 42.4976 38.2092 42.4976 38.0826V34.9314C42.6378 34.7543 42.769 34.6215 42.8912 34.5355C43.0147 34.4495 43.151 34.4065 43.3028 34.4065C43.4559 34.4065 43.5588 34.4216 43.6141 34.4545C43.6694 34.4849 43.726 34.5013 43.7851 34.5013C43.8199 34.5013 43.8507 34.4735 43.8765 34.4191C43.9035 34.3647 43.9241 34.3002 43.9382 34.2256C43.9524 34.1509 43.9601 34.0877 43.9601 34.0358C43.9601 33.9207 43.9176 33.8372 43.8327 33.7828C43.7491 33.7271 43.6218 33.7006 43.452 33.7006C43.2706 33.7006 43.0944 33.7562 42.9221 33.8688C42.7497 33.9801 42.5889 34.1395 42.4371 34.3457C42.4191 34.2711 42.3998 34.1901 42.3805 34.1003C42.3587 34.0118 42.3304 33.9359 42.2918 33.8726C42.2545 33.8094 42.2005 33.7777 42.1297 33.7777C42.1014 33.7777 42.0603 33.7815 42.0075 33.7866C41.9548 33.7917 41.902 33.8018 41.8493 33.817C41.7979 33.8309 41.7516 33.8511 41.7142 33.8764C41.6769 33.903 41.6577 33.9359 41.6577 33.9763C41.6577 33.9877 41.6667 34.0345 41.6834 34.118C41.7014 34.2015 41.7194 34.3204 41.7361 34.4748C41.7541 34.6304 41.7618 34.8252 41.7618 35.0605V38.0826ZM46.7093 37.6871C47.1402 37.6871 47.458 37.5504 47.6586 37.2785C47.8606 37.0052 47.9609 36.5814 47.9609 36.0084C47.9609 35.434 47.8606 35.009 47.6586 34.7332C47.458 34.4587 47.1402 34.3208 46.7093 34.3208C46.2836 34.3208 45.971 34.4574 45.7717 34.7294C45.5736 35.0027 45.4745 35.429 45.4745 36.0084C45.4745 36.5814 45.5736 37.0052 45.7717 37.2785C45.971 37.5504 46.2836 37.6871 46.7093 37.6871ZM46.7351 38.3069C46.0765 38.3069 45.5723 38.1121 45.225 37.7212C44.8777 37.3316 44.7041 36.7661 44.7041 36.0248C44.7041 35.2784 44.879 34.7054 45.2301 34.3031C45.58 33.9008 46.0816 33.701 46.7351 33.701C47.3769 33.701 47.8683 33.8996 48.2104 34.2993C48.5526 34.6978 48.7224 35.2734 48.7224 36.0248C48.7224 36.7712 48.5551 37.3379 48.2194 37.7263C47.8837 38.1134 47.3885 38.3069 46.7351 38.3069ZM50.1675 38.0826C50.1675 38.2092 50.2832 38.2724 50.5173 38.2724H50.5521C50.7862 38.2724 50.9032 38.2092 50.9032 38.0826V34.9226C51.0023 34.8024 51.0987 34.7037 51.1965 34.6266C51.2917 34.5481 51.4062 34.4798 51.5374 34.4191C51.6686 34.3597 51.8126 34.3293 51.9708 34.3293C52.2512 34.3293 52.4609 34.4052 52.6011 34.557C52.7413 34.7088 52.8108 34.9112 52.8108 35.1642V38.0826C52.8108 38.2092 52.9278 38.2724 53.1606 38.2724H53.1966C53.4295 38.2724 53.5465 38.2092 53.5465 38.0826V35.1035C53.5465 35.0523 53.5439 34.9967 53.54 34.9383C53.5548 34.9204 53.5729 34.8982 53.5941 34.872C53.6494 34.8024 53.7292 34.7265 53.8308 34.643C53.9337 34.5595 54.0494 34.4874 54.1806 34.4242C54.3131 34.3609 54.4572 34.3293 54.6141 34.3293C54.8945 34.3293 55.1042 34.4052 55.2444 34.557C55.3846 34.7088 55.4553 34.9112 55.4553 35.1642V38.0826C55.4553 38.2092 55.5711 38.2724 55.8052 38.2724H55.8399C56.074 38.2724 56.1898 38.2092 56.1898 38.0826V35.0946C56.1898 34.8024 56.1473 34.5646 56.0586 34.3812C55.9711 34.1965 55.8566 34.056 55.7139 33.9586C55.5698 33.8612 55.4206 33.7942 55.2624 33.7562C55.1042 33.7195 54.9563 33.7006 54.816 33.7006C54.5421 33.7006 54.2835 33.7701 54.0417 33.9118C53.7986 34.0523 53.5928 34.2192 53.4243 34.4153C53.342 34.2192 53.2301 34.0712 53.0873 33.9675C52.9445 33.8638 52.7927 33.7942 52.632 33.7562C52.4712 33.7195 52.3181 33.7006 52.1715 33.7006C51.8924 33.7006 51.6364 33.7664 51.4062 33.8979C51.1746 34.0307 50.9868 34.18 50.8415 34.3457C50.8235 34.2711 50.8042 34.1901 50.7849 34.1003C50.7643 34.0118 50.7347 33.9359 50.6974 33.8726C50.6588 33.8094 50.6048 33.7777 50.5353 33.7777C50.5058 33.7777 50.4646 33.7815 50.4119 33.7866C50.3591 33.7917 50.3077 33.8018 50.2549 33.817C50.2022 33.8309 50.1572 33.8511 50.1186 33.8764C50.08 33.903 50.062 33.9359 50.062 33.9763C50.062 33.9877 50.071 34.0345 50.089 34.118C50.1057 34.2015 50.1237 34.3204 50.1418 34.4748C50.1585 34.6304 50.1675 34.8252 50.1675 35.0605V38.0826ZM53.54 34.9383C53.5163 34.9671 53.5009 34.9852 53.4938 34.9922L53.4848 34.6987C53.5143 34.7619 53.5324 34.8302 53.5375 34.9011L53.54 34.9383ZM59.9022 38.2552C59.8791 38.2552 59.8533 38.2312 59.8237 38.1818C59.7942 38.1338 59.7684 38.0743 59.7453 38.006C59.7208 37.9364 59.7106 37.8732 59.7106 37.8162C59.7106 37.7758 59.7183 37.7441 59.7363 37.7214L62.3011 34.3715H60.0604C59.9434 34.3715 59.8855 34.2855 59.8855 34.1135V34.0097C59.8855 33.8377 59.9434 33.7517 60.0604 33.7517H63.1333C63.1629 33.7517 63.1899 33.7782 63.2156 33.8288C63.2426 33.8807 63.2645 33.9427 63.2825 34.0148C63.2992 34.0869 63.3082 34.1476 63.3082 34.1995C63.3082 34.2349 63.3018 34.2628 63.2902 34.2855L60.7344 37.6353H63.1423C63.2581 37.6353 63.3173 37.7214 63.3173 37.8934V37.9971C63.3173 38.1692 63.2581 38.2552 63.1423 38.2552H59.9022ZM67.2568 35.6806H64.9801C65.0097 35.2277 65.1268 34.8874 65.3313 34.6597C65.5345 34.4333 65.8265 34.3207 66.206 34.3207C66.5558 34.3207 66.8195 34.4333 66.9944 34.6597C67.1694 34.8874 67.2568 35.2277 67.2568 35.6806ZM64.7229 37.7477C65.0753 38.1209 65.613 38.3068 66.3372 38.3068C66.5597 38.3068 66.7655 38.2878 66.9546 38.2512C67.1436 38.2132 67.3109 38.1664 67.4536 38.1082C67.5964 38.0513 67.7083 37.9918 67.7906 37.9286C67.873 37.8653 67.9128 37.8071 67.9128 37.7565C67.9128 37.7211 67.8961 37.6692 67.8601 37.6009C67.8254 37.5326 67.7842 37.4681 67.7379 37.4112C67.6916 37.3542 67.6479 37.3251 67.6067 37.3251C67.5771 37.3251 67.5102 37.3555 67.406 37.4162C67.3006 37.4757 67.1591 37.5364 66.9803 37.5959C66.8028 37.6566 66.5854 37.6869 66.3281 37.6869C65.896 37.6869 65.5731 37.5756 65.357 37.3504C65.1409 37.1278 65.0149 36.7774 64.9801 36.3005H67.7469C67.7816 36.3005 67.8228 36.2777 67.8691 36.2322C67.9154 36.1866 67.9553 36.136 67.9874 36.0804C68.0196 36.0272 68.035 35.9817 68.035 35.9475C68.035 35.4592 67.9681 35.0494 67.8344 34.7166C67.7006 34.3839 67.4999 34.1309 67.235 33.9589C66.9687 33.7868 66.6343 33.7008 66.233 33.7008C65.7879 33.7008 65.4149 33.7894 65.1113 33.9677C64.8078 34.1449 64.5788 34.4067 64.4245 34.7508C64.2701 35.0949 64.1917 35.5225 64.1917 36.0335C64.1917 36.8027 64.3679 37.3745 64.7229 37.7477ZM69.7869 38.2724C69.5528 38.2724 69.4358 38.2092 69.4358 38.0826V35.0605C69.4358 34.8252 69.4281 34.6304 69.41 34.4748C69.3933 34.3204 69.3753 34.2015 69.3573 34.118C69.3406 34.0345 69.3316 33.9877 69.3316 33.9763C69.3316 33.9359 69.3509 33.903 69.3882 33.8764C69.4255 33.8511 69.4718 33.8309 69.5232 33.817C69.576 33.8018 69.6287 33.7917 69.6814 33.7866C69.7342 33.7815 69.7753 33.7777 69.8036 33.7777C69.8744 33.7777 69.9284 33.8094 69.9657 33.8726C70.0043 33.9359 70.0326 34.0118 70.0545 34.1003C70.0738 34.1901 70.0931 34.2711 70.1111 34.3457C70.2628 34.1395 70.4236 33.9801 70.596 33.8688C70.7683 33.7562 70.9446 33.7006 71.1259 33.7006C71.2957 33.7006 71.4231 33.7271 71.5067 33.7828C71.5916 33.8372 71.634 33.9207 71.634 34.0358C71.634 34.0877 71.6263 34.1509 71.6121 34.2256C71.598 34.3002 71.5774 34.3647 71.5504 34.4191C71.5247 34.4735 71.4938 34.5013 71.4591 34.5013C71.3999 34.5013 71.3433 34.4849 71.288 34.4545C71.2327 34.4216 71.1298 34.4065 70.9767 34.4065C70.8249 34.4065 70.6886 34.4495 70.5651 34.5355C70.4429 34.6215 70.3117 34.7543 70.1715 34.9314V38.0826C70.1715 38.2092 70.0558 38.2724 69.8217 38.2724H69.7869ZM75.3327 37.2785C75.132 37.5504 74.8143 37.6871 74.3834 37.6871C73.9576 37.6871 73.6451 37.5504 73.4457 37.2785C73.2476 37.0052 73.1486 36.5814 73.1486 36.0084C73.1486 35.429 73.2476 35.0027 73.4457 34.7294C73.6451 34.4574 73.9576 34.3208 74.3834 34.3208C74.8143 34.3208 75.132 34.4587 75.3327 34.7332C75.5346 35.009 75.6349 35.434 75.6349 36.0084C75.6349 36.5814 75.5346 37.0052 75.3327 37.2785ZM72.8991 37.7212C73.2463 38.1121 73.7506 38.3069 74.4091 38.3069C75.0626 38.3069 75.5578 38.1134 75.8935 37.7263C76.2292 37.3379 76.3964 36.7712 76.3964 36.0248C76.3964 35.2734 76.2266 34.6978 75.8845 34.2993C75.5423 33.8996 75.051 33.701 74.4091 33.701C73.7557 33.701 73.2541 33.9008 72.9042 34.3031C72.553 34.7054 72.3781 35.2784 72.3781 36.0248C72.3781 36.7661 72.5518 37.3316 72.8991 37.7212ZM81.4836 38.3069C81.373 38.3069 81.2534 38.2905 81.1247 38.2589C80.9961 38.2285 80.8739 38.1703 80.7569 38.0868C80.6398 38.0046 80.5433 37.8832 80.4675 37.7263C80.3916 37.5682 80.3543 37.3658 80.3543 37.1191V34.3727H79.9169C79.7999 34.3727 79.742 34.2854 79.742 34.1134V34.0096C79.742 33.8376 79.7999 33.7516 79.9169 33.7516H80.3543L80.4584 32.8483C80.4713 32.7218 80.5639 32.6586 80.7389 32.6586H80.8263C81.0013 32.6586 81.09 32.7218 81.09 32.8483V33.7516H81.8245C81.9415 33.7516 81.9994 33.8376 81.9994 34.0096V34.1134C81.9994 34.2854 81.9415 34.3727 81.8245 34.3727H81.09V37.0495C81.09 37.3076 81.1363 37.4796 81.2302 37.5618C81.3228 37.6453 81.4334 37.6871 81.5621 37.6871C81.6907 37.6871 81.7756 37.6795 81.8155 37.6656C81.8566 37.6517 81.8978 37.6441 81.9389 37.6441C81.9801 37.6441 82.0135 37.6732 82.0393 37.7301C82.065 37.787 82.0856 37.849 82.101 37.9148C82.1152 37.9818 82.1216 38.0261 82.1216 38.0489C82.1216 38.1235 82.0856 38.1792 82.0135 38.2159C81.9402 38.2538 81.854 38.2778 81.755 38.2892C81.6547 38.3006 81.5646 38.3069 81.4836 38.3069ZM86.0658 37.2785C85.8651 37.5504 85.5474 37.6871 85.1165 37.6871C84.6908 37.6871 84.3782 37.5504 84.1789 37.2785C83.9808 37.0052 83.8817 36.5814 83.8817 36.0084C83.8817 35.429 83.9808 35.0027 84.1789 34.7294C84.3782 34.4574 84.6908 34.3208 85.1165 34.3208C85.5474 34.3208 85.8651 34.4587 86.0658 34.7332C86.2677 35.009 86.3681 35.434 86.3681 36.0084C86.3681 36.5814 86.2677 37.0052 86.0658 37.2785ZM83.6322 37.7212C83.9795 38.1121 84.4837 38.3069 85.1423 38.3069C85.7957 38.3069 86.2909 38.1134 86.6266 37.7263C86.9623 37.3379 87.1296 36.7712 87.1296 36.0248C87.1296 35.2734 86.9598 34.6978 86.6176 34.2993C86.2755 33.8996 85.7841 33.701 85.1423 33.701C84.4888 33.701 83.9872 33.9008 83.6373 34.3031C83.2862 34.7054 83.1112 35.2784 83.1112 36.0248C83.1112 36.7661 83.2849 37.3316 83.6322 37.7212ZM91.3058 38.2724C91.0717 38.2724 90.9559 38.2092 90.9559 38.0826V31.97C90.9559 31.8435 91.0717 31.7802 91.3058 31.7802H91.3405C91.5746 31.7802 91.6917 31.8435 91.6917 31.97V34.2951C91.8435 34.1459 92.0338 34.0092 92.2641 33.8853C92.4943 33.7626 92.7503 33.7006 93.0307 33.7006C93.1709 33.7006 93.3214 33.7195 93.4809 33.7562C93.6417 33.7942 93.7934 33.8612 93.9362 33.9586C94.0803 34.056 94.196 34.1965 94.2874 34.3812C94.3774 34.5646 94.4224 34.8024 94.4224 35.0946V38.0826C94.4224 38.2092 94.3067 38.2724 94.0726 38.2724H94.0378C93.8037 38.2724 93.6867 38.2092 93.6867 38.0826V35.1642C93.6867 34.9112 93.6134 34.7088 93.4642 34.557C93.315 34.4052 93.0924 34.3293 92.794 34.3293C92.6307 34.3293 92.4815 34.3597 92.3477 34.4191C92.2139 34.4798 92.0969 34.5494 91.9978 34.6304C91.8988 34.7113 91.7959 34.8113 91.6917 34.9314V38.0826C91.6917 38.2092 91.5746 38.2724 91.3405 38.2724H91.3058ZM98.8616 35.6806H96.5849C96.6145 35.2277 96.7315 34.8874 96.9361 34.6597C97.1393 34.4333 97.4313 34.3207 97.8107 34.3207C98.1606 34.3207 98.4243 34.4333 98.5992 34.6597C98.7741 34.8874 98.8616 35.2277 98.8616 35.6806ZM96.3277 37.7477C96.6801 38.1209 97.2178 38.3068 97.9419 38.3068C98.1644 38.3068 98.3702 38.2878 98.5593 38.2512C98.7484 38.2132 98.9156 38.1664 99.0584 38.1082C99.2012 38.0513 99.3131 37.9918 99.3954 37.9286C99.4777 37.8653 99.5176 37.8071 99.5176 37.7565C99.5176 37.7211 99.5009 37.6692 99.4649 37.6009C99.4301 37.5326 99.389 37.4681 99.3427 37.4112C99.2964 37.3542 99.2526 37.3251 99.2115 37.3251C99.1819 37.3251 99.115 37.3555 99.0108 37.4162C98.9053 37.4757 98.7638 37.5364 98.5851 37.5959C98.4076 37.6566 98.1902 37.6869 97.9329 37.6869C97.5007 37.6869 97.1779 37.5756 96.9618 37.3504C96.7457 37.1278 96.6196 36.7774 96.5849 36.3005H99.3517C99.3864 36.3005 99.4276 36.2777 99.4739 36.2322C99.5202 36.1866 99.56 36.136 99.5922 36.0804C99.6244 36.0272 99.6411 35.9817 99.6411 35.9475C99.6411 35.4592 99.5729 35.0494 99.4391 34.7166C99.3054 34.3839 99.1047 34.1309 98.8397 33.9589C98.5735 33.7868 98.239 33.7008 97.8377 33.7008C97.3927 33.7008 97.0197 33.7894 96.7161 33.9677C96.4125 34.1449 96.1836 34.4067 96.0292 34.7508C95.8749 35.0949 95.7964 35.5225 95.7964 36.0335C95.7964 36.8027 95.9726 37.3745 96.3277 37.7477ZM101.391 38.2724C101.157 38.2724 101.04 38.2092 101.04 38.0826V35.0605C101.04 34.8252 101.032 34.6304 101.014 34.4748C100.998 34.3204 100.98 34.2015 100.962 34.118C100.945 34.0345 100.936 33.9877 100.936 33.9763C100.936 33.9359 100.955 33.903 100.992 33.8764C101.03 33.8511 101.076 33.8309 101.127 33.817C101.18 33.8018 101.233 33.7917 101.286 33.7866C101.338 33.7815 101.38 33.7777 101.408 33.7777C101.479 33.7777 101.533 33.8094 101.57 33.8726C101.609 33.9359 101.637 34.0118 101.659 34.1003C101.678 34.1901 101.697 34.2711 101.715 34.3457C101.867 34.1395 102.028 33.9801 102.2 33.8688C102.373 33.7562 102.549 33.7006 102.73 33.7006C102.9 33.7006 103.027 33.7271 103.111 33.7828C103.196 33.8372 103.238 33.9207 103.238 34.0358C103.238 34.0877 103.231 34.1509 103.216 34.2256C103.202 34.3002 103.182 34.3647 103.155 34.4191C103.129 34.4735 103.098 34.5013 103.063 34.5013C103.004 34.5013 102.948 34.4849 102.892 34.4545C102.837 34.4216 102.734 34.4065 102.581 34.4065C102.429 34.4065 102.293 34.4495 102.169 34.5355C102.047 34.6215 101.916 34.7543 101.776 34.9314V38.0826C101.776 38.2092 101.66 38.2724 101.426 38.2724H101.391ZM106.937 37.2785C106.736 37.5504 106.419 37.6871 105.988 37.6871C105.562 37.6871 105.249 37.5504 105.05 37.2785C104.852 37.0052 104.753 36.5814 104.753 36.0084C104.753 35.429 104.852 35.0027 105.05 34.7294C105.249 34.4574 105.562 34.3208 105.988 34.3208C106.419 34.3208 106.736 34.4587 106.937 34.7332C107.139 35.009 107.239 35.434 107.239 36.0084C107.239 36.5814 107.139 37.0052 106.937 37.2785ZM104.503 37.7212C104.851 38.1121 105.355 38.3069 106.013 38.3069C106.667 38.3069 107.162 38.1134 107.498 37.7263C107.833 37.3379 108.001 36.7712 108.001 36.0248C108.001 35.2734 107.831 34.6978 107.489 34.2993C107.147 33.8996 106.655 33.701 106.013 33.701C105.36 33.701 104.858 33.9008 104.508 34.3031C104.157 34.7054 103.982 35.2784 103.982 36.0248C103.982 36.7661 104.156 37.3316 104.503 37.7212Z" fill="#FCFAF7"/>
</svg>
