<svg version="1.1" xmlns="http://www.w3.org/2000/svg" xmlns:xlink="http://www.w3.org/1999/xlink" viewBox="0 0 172 172"><g fill="none" fill-rule="nonzero" stroke="none" stroke-width="1" stroke-linecap="butt" stroke-linejoin="miter" stroke-miterlimit="10" stroke-dasharray="" stroke-dashoffset="0" font-family="none" font-weight="none" font-size="none" text-anchor="none" style="mix-blend-mode: normal"><path d="M0,172v-172h172v172z" fill="none"></path><g><g><g><g fill="#0934c3"><path d="M154.97551,80.03265v20.18367c0,5.8159 -4.71472,10.53061 -10.53061,10.53061h-39.84082v-11.23265h-37.20816v11.23265h-39.84082c-5.8159,0 -10.53061,-4.71472 -10.53061,-10.53061v-44.7551c0,-5.8159 4.71472,-10.53061 10.53061,-10.53061h116.8898c5.8159,0 10.53061,4.71472 10.53061,10.53061z"></path></g><g fill="#08d958"><path d="M154.97551,100.21633v35.10204c0,5.8159 -4.71472,10.53061 -10.53061,10.53061h-116.8898c-5.8159,0 -10.53061,-4.71472 -10.53061,-10.53061v-35.10204c0,5.8159 4.71472,10.53061 10.53061,10.53061h39.84082v13.51429h37.20816v-13.51429h39.84082c5.8159,0 10.53061,-4.71472 10.53061,-10.53061z"></path></g><g fill="#a4cff4"><path d="M104.60408,110.74694v13.51429h-37.20816v-13.51429v-11.23265h37.20816z"></path></g></g><path d="M144.4449,42.12245h-28.60816v-5.44082c0.0947,-3.64464 -1.28721,-7.17292 -3.83197,-9.78378c-2.54476,-2.61085 -6.03645,-4.08276 -9.68232,-4.08153h-32.6449c-3.64587,-0.00123 -7.13756,1.47068 -9.68232,4.08153c-2.54476,2.61085 -3.92666,6.13914 -3.83197,9.78378v5.44082h-28.60816c-3.59666,-0.14733 -7.09315,1.20465 -9.65508,3.73332c-2.56194,2.52866 -3.95951,6.00718 -3.8592,9.60546v79.85714c-0.0947,3.64464 1.28721,7.17292 3.83197,9.78378c2.54476,2.61085 6.03645,4.08276 9.68232,4.08153h116.8898c3.64587,0.00123 7.13756,-1.47068 9.68232,-4.08153c2.54476,-2.61085 3.92666,-6.13914 3.83197,-9.78378v-79.85714c0.1003,-3.59828 -1.29727,-7.0768 -3.8592,-9.60546c-2.56194,-2.52866 -6.05843,-3.88065 -9.65508,-3.73332zM63.18367,36.68163c-0.09648,-1.78226 0.54486,-3.52565 1.77331,-4.82051c1.22845,-1.29485 2.9357,-2.027 4.72057,-2.02439h32.6449c1.78486,-0.00261 3.49211,0.72954 4.72057,2.02439c1.22845,1.29485 1.86979,3.03825 1.77331,4.82051v5.44082h-45.63265zM144.4449,142.16327h-116.8898c-1.78486,0.00261 -3.49211,-0.72954 -4.72057,-2.02439c-1.22845,-1.29485 -1.86979,-3.03825 -1.77331,-4.82051v-22.99184c1.92493,1.25621 4.19821,1.87062 6.49388,1.7551h35.62857v10.17959c0.32473,2.11569 2.07635,3.72135 4.21224,3.86122h37.20816c2.13589,-0.13988 3.88752,-1.74553 4.21224,-3.86122v-10.17959h35.62857c2.29567,0.11551 4.56895,-0.49889 6.49388,-1.7551v22.99184c0.09648,1.78226 -0.54486,3.52565 -1.77331,4.82051c-1.22845,1.29485 -2.9357,2.027 -4.72057,2.02439zM70.20408,121.10204v-17.55102h31.59184v17.55102zM144.4449,107.06122h-35.62857v-7.54694c0,-1.93061 -2.28163,-2.98367 -4.21224,-2.98367h-37.20816c-1.93061,0 -4.21224,1.05306 -4.21224,2.98367v7.54694h-35.62857c-1.78486,0.00261 -3.49211,-0.72954 -4.72057,-2.02439c-1.22845,-1.29485 -1.86979,-3.03825 -1.77331,-4.82051v-44.7551c-0.10956,-1.73829 0.54582,-3.43769 1.79417,-4.65231c1.24835,-1.21461 2.96507,-1.82319 4.69971,-1.66606h116.8898c1.73464,-0.15713 3.45135,0.45145 4.69971,1.66606c1.24835,1.21461 1.90373,2.91401 1.79417,4.65231v44.7551c0.09648,1.78226 -0.54486,3.52565 -1.77331,4.82051c-1.22845,1.29485 -2.9357,2.027 -4.72057,2.02439z" fill="#000000"></path></g></g></g></svg>